<?xml version="1.0" encoding="UTF-8"?>
<svg id="Layer_1" data-name="Layer 1" xmlns="http://www.w3.org/2000/svg" viewBox="162.8 334.86 1594.39 410.27">
  <defs>
    <style>
      .cls-1 {
        fill: #181818;
      }
    </style>
  </defs>
  <path class="cls-1" d="M1635.18,745.06l-290.89.07c-27.09,0-52.74-8.86-74.04-24.55-30.01-22.11-46.01-58.27-42.46-95.02,3.32-34.45,23.75-63.69,52.83-81.64,2.55-1.57,3.42-3.89,3.5-6.2.12-3.04-1.84-4.54-4.61-6.46-20.18-13.94-35.81-33.55-43.04-57.25-11.88-38.91.54-79.82,31.34-106.97,22.31-19.66,51.65-31.85,82.6-31.86l286.92-.1c65.97-.02,123.62,53.95,115.95,119.41-3.75,32.06-22.58,58.76-48.59,77.06-2.43,1.71-3.72,3.83-3.83,6.1-.15,3.2,1.35,4.97,4.4,6.88,29.71,18.58,50.15,49.54,51.82,85.03,3.06,65.11-57.46,115.48-121.9,115.5ZM1559.6,495.95c20.03-.13,31.67-19.82,30.92-37.61-.75-17.97-13.09-34.87-32.21-34.9l-127.53-.21c-20.93-.03-34.17,16.8-34.51,36.19-.38,21.38,14.88,37.53,37.01,37.38l126.32-.84ZM1558.77,656.39c20.02-.03,32.05-19.01,31.87-36.75-.18-18.39-12.84-35.86-32.39-35.88l-128.76-.14c-20.41-.02-33.35,16.85-33.58,36.01-.23,18.54,12.03,37,32.34,36.97l130.52-.21Z"/>
  <path class="cls-1" d="M631.88,744.78l-380.98.15c-52.35.02-91.61-45.1-87.77-96.29-2.19-28.65,6.69-54.62,26.04-75.51,28.99-30.05,71.29-43.61,111.25-55.85,51.43-15.75,102.96-27.51,155.27-39.1,10.9-2.41,17.42-13.61,13.87-23.29-3.1-8.47-11.77-11.93-20.45-11.56-22.68.96-44.06,3.82-66.33,8.6l-128,27.43c-17.36,3.72-33.37,7.93-50.85,9.85-20.93,2.3-39.23-11.95-40.79-32.93v-25.42c1.76-30.44,16.49-57.62,41.62-74.98,18.68-12.91,40.37-20.64,63.89-20.65l302.95-.14c19.38,0,37.01,4.38,53.56,13.45,38.43,21.05,57.81,66.09,45.98,108.4-10.11,36.19-46.73,62.64-81.21,74.36l-66.15,22.48-147.71,49.12c-8.27,2.75-11.91,12.52-10.89,18.94,1.36,8.65,9.19,14.36,18.38,13.83,22.68-1.31,44.2-5.27,66.57-10.36l117.29-26.66,64.75-13.68c21.14-4.47,41.94,12.48,41.86,34.46l-.32,83.93c-.08,20.36-19.17,41.43-41.83,41.44Z"/>
  <path class="cls-1" d="M1168.34,745.06l-85.65-.33c-8.67-.03-18.61-5.59-24.43-12.16l-81.87-92.42c-11.31-12.76-27.91-15.32-41.2-3.57l-20.11,20.22-68.63,76.64c-6.22,6.95-16.17,11.44-25.38,11.44l-84.84-.05c-17.06,0-29.59-15.24-29.64-31.57l-.15-53.08c-.05-17.8,7.88-30.09,20.98-40.82l86.07-70.41c5.59-4.57,7.41-12.85,6.62-18.86-2.2-16.83-31.45-27.13-50.49-36.41-24.62-11.99-62.8-25.22-62.76-55.14l.1-73.57c.02-15.59,13.84-29.47,29.65-29.54l88.13-.36c12.03-.05,22.91,5.84,30.82,14.42l56.42,61.16,25.7,26.21c10.17,10.38,26.74,8.84,36.99-1.76l82.51-85.36c9.67-10,21.69-14.92,35.76-14.88l77.11.21c16.73.05,31.18,13.29,31.2,30.09l.07,48.03c.02,13.3-7.45,24.47-18.02,32.38l-94.58,70.79c-5.59,4.18-7.82,11.43-7.79,17.43.04,6.42,3.43,12.31,9.1,16.6l91.38,69.02c11.09,8.37,19.76,20.04,19.75,34.36l-.03,60.47c0,17.39-14.99,30.87-32.81,30.8Z"/>
</svg>